<svg xmlns="http://www.w3.org/2000/svg" xmlns:xlink="http://www.w3.org/1999/xlink" width="200" zoomAndPan="magnify" viewBox="0 0 150 149.999998" height="200" preserveAspectRatio="xMidYMid meet" version="1.0"><defs><g/></defs><g fill="#ff0000" fill-opacity="1"><g transform="translate(22.910028, 72.547364)"><g><path d="M 22.207031 0 L 22.207031 -20.453125 L 17.53125 -20.453125 L 17.53125 -12.5625 L 7.011719 -12.5625 L 7.011719 -20.453125 L 0.144531 -20.453125 L 0.144531 -15.777344 L 2.335938 -15.777344 L 2.335938 0 L 7.011719 0 L 7.011719 -7.890625 L 17.53125 -7.890625 L 17.53125 0 Z M 22.207031 0 "/></g></g></g><g fill="#ff0000" fill-opacity="1"><g transform="translate(49.698599, 72.547364)"><g><path d="M 22.058594 0 L 22.058594 -17.53125 L 19.136719 -20.453125 L 2.191406 -20.453125 L 2.191406 -15.777344 L 17.386719 -15.777344 L 17.386719 -12.5625 L 4.382812 -12.5625 L 1.460938 -9.640625 L 1.460938 -2.921875 L 4.382812 0 L 15.925781 0 L 15.925781 -4.675781 L 6.136719 -4.675781 L 6.136719 -7.890625 L 17.386719 -7.890625 L 17.386719 -2.921875 L 20.308594 0 Z M 22.058594 0 "/></g></g></g><g fill="#ff0000" fill-opacity="1"><g transform="translate(76.341108, 72.547364)"><g><path d="M 17.824219 -4.96875 L 20.746094 -7.890625 L 20.746094 -17.53125 L 17.824219 -20.453125 L 0.144531 -20.453125 L 0.144531 -15.777344 L 16.070312 -15.777344 L 16.070312 -9.640625 L 7.011719 -9.640625 L 7.011719 -14.316406 L 2.335938 -14.316406 L 2.335938 0 L 7.011719 0 L 7.011719 -4.96875 L 11.890625 -4.96875 C 13.351562 -3.300781 14.785156 -1.636719 16.273438 0 L 22.207031 0 C 20.714844 -1.636719 19.285156 -3.300781 17.824219 -4.96875 Z M 17.824219 -4.96875 "/></g></g></g><g fill="#ff0000" fill-opacity="1"><g transform="translate(101.9612, 72.547364)"><g><path d="M 17.824219 0 L 20.746094 -2.921875 L 20.746094 -17.53125 L 17.824219 -20.453125 L 0.144531 -20.453125 L 0.144531 -15.777344 L 16.070312 -15.777344 L 16.070312 -4.675781 L 7.011719 -4.675781 L 7.011719 -14.316406 L 2.335938 -14.316406 L 2.335938 0 Z M 17.824219 0 "/></g></g></g><g fill="#00ffff" fill-opacity="1"><g transform="translate(25.810622, 72.191216)"><g><path d="M 22.207031 0 L 22.207031 -20.453125 L 17.53125 -20.453125 L 17.53125 -12.5625 L 7.011719 -12.5625 L 7.011719 -20.453125 L 0.144531 -20.453125 L 0.144531 -15.777344 L 2.335938 -15.777344 L 2.335938 0 L 7.011719 0 L 7.011719 -7.890625 L 17.53125 -7.890625 L 17.53125 0 Z M 22.207031 0 "/></g></g></g><g fill="#00ffff" fill-opacity="1"><g transform="translate(52.599193, 72.191216)"><g><path d="M 22.058594 0 L 22.058594 -17.53125 L 19.136719 -20.453125 L 2.191406 -20.453125 L 2.191406 -15.777344 L 17.386719 -15.777344 L 17.386719 -12.5625 L 4.382812 -12.5625 L 1.460938 -9.640625 L 1.460938 -2.921875 L 4.382812 0 L 15.925781 0 L 15.925781 -4.675781 L 6.136719 -4.675781 L 6.136719 -7.890625 L 17.386719 -7.890625 L 17.386719 -2.921875 L 20.308594 0 Z M 22.058594 0 "/></g></g></g><g fill="#00ffff" fill-opacity="1"><g transform="translate(79.241702, 72.191216)"><g><path d="M 17.824219 -4.96875 L 20.746094 -7.890625 L 20.746094 -17.53125 L 17.824219 -20.453125 L 0.144531 -20.453125 L 0.144531 -15.777344 L 16.070312 -15.777344 L 16.070312 -9.640625 L 7.011719 -9.640625 L 7.011719 -14.316406 L 2.335938 -14.316406 L 2.335938 0 L 7.011719 0 L 7.011719 -4.96875 L 11.890625 -4.96875 C 13.351562 -3.300781 14.785156 -1.636719 16.273438 0 L 22.207031 0 C 20.714844 -1.636719 19.285156 -3.300781 17.824219 -4.96875 Z M 17.824219 -4.96875 "/></g></g></g><g fill="#00ffff" fill-opacity="1"><g transform="translate(104.861794, 72.191216)"><g><path d="M 17.824219 0 L 20.746094 -2.921875 L 20.746094 -17.53125 L 17.824219 -20.453125 L 0.144531 -20.453125 L 0.144531 -15.777344 L 16.070312 -15.777344 L 16.070312 -4.675781 L 7.011719 -4.675781 L 7.011719 -14.316406 L 2.335938 -14.316406 L 2.335938 0 Z M 17.824219 0 "/></g></g></g><g fill="#38b6ff" fill-opacity="1"><g transform="translate(24.360325, 72.369288)"><g><path d="M 22.207031 0 L 22.207031 -20.453125 L 17.53125 -20.453125 L 17.53125 -12.5625 L 7.011719 -12.5625 L 7.011719 -20.453125 L 0.144531 -20.453125 L 0.144531 -15.777344 L 2.335938 -15.777344 L 2.335938 0 L 7.011719 0 L 7.011719 -7.890625 L 17.53125 -7.890625 L 17.53125 0 Z M 22.207031 0 "/></g></g></g><g fill="#38b6ff" fill-opacity="1"><g transform="translate(51.148896, 72.369288)"><g><path d="M 22.058594 0 L 22.058594 -17.53125 L 19.136719 -20.453125 L 2.191406 -20.453125 L 2.191406 -15.777344 L 17.386719 -15.777344 L 17.386719 -12.5625 L 4.382812 -12.5625 L 1.460938 -9.640625 L 1.460938 -2.921875 L 4.382812 0 L 15.925781 0 L 15.925781 -4.675781 L 6.136719 -4.675781 L 6.136719 -7.890625 L 17.386719 -7.890625 L 17.386719 -2.921875 L 20.308594 0 Z M 22.058594 0 "/></g></g></g><g fill="#38b6ff" fill-opacity="1"><g transform="translate(77.791405, 72.369288)"><g><path d="M 17.824219 -4.96875 L 20.746094 -7.890625 L 20.746094 -17.53125 L 17.824219 -20.453125 L 0.144531 -20.453125 L 0.144531 -15.777344 L 16.070312 -15.777344 L 16.070312 -9.640625 L 7.011719 -9.640625 L 7.011719 -14.316406 L 2.335938 -14.316406 L 2.335938 0 L 7.011719 0 L 7.011719 -4.96875 L 11.890625 -4.96875 C 13.351562 -3.300781 14.785156 -1.636719 16.273438 0 L 22.207031 0 C 20.714844 -1.636719 19.285156 -3.300781 17.824219 -4.96875 Z M 17.824219 -4.96875 "/></g></g></g><g fill="#38b6ff" fill-opacity="1"><g transform="translate(103.411497, 72.369288)"><g><path d="M 17.824219 0 L 20.746094 -2.921875 L 20.746094 -17.53125 L 17.824219 -20.453125 L 0.144531 -20.453125 L 0.144531 -15.777344 L 16.070312 -15.777344 L 16.070312 -4.675781 L 7.011719 -4.675781 L 7.011719 -14.316406 L 2.335938 -14.316406 L 2.335938 0 Z M 17.824219 0 "/></g></g></g><g fill="#ff0000" fill-opacity="1"><g transform="translate(7.728642, 97.977556)"><g><path d="M 17.96875 0 L 20.890625 -2.921875 L 20.890625 -9.640625 L 17.96875 -12.5625 L 6.136719 -12.5625 L 6.136719 -15.777344 L 20.890625 -15.777344 L 20.890625 -20.453125 L 4.382812 -20.453125 L 1.460938 -17.53125 L 1.460938 -10.8125 L 4.382812 -7.890625 L 16.214844 -7.890625 L 16.214844 -4.675781 L 1.460938 -4.675781 L 1.460938 0 Z M 17.96875 0 "/></g></g></g><g fill="#ff0000" fill-opacity="1"><g transform="translate(33.202674, 97.977556)"><g><path d="M 21.941406 0 L 17.152344 -10.226562 L 21.941406 -20.453125 L 16.800781 -20.453125 L 13.089844 -12.5625 L 7.011719 -12.5625 L 7.011719 -20.453125 L 0.144531 -20.453125 L 0.144531 -15.777344 L 2.335938 -15.777344 L 2.335938 0 L 7.011719 0 L 7.011719 -7.890625 L 13.148438 -7.890625 L 16.800781 0 Z M 21.941406 0 "/></g></g></g><g fill="#ff0000" fill-opacity="1"><g transform="translate(59.144099, 97.977556)"><g><path d="M 6.136719 0 L 6.136719 -20.453125 L 1.460938 -20.453125 L 1.460938 0 Z M 6.136719 0 "/></g></g></g><g fill="#ff0000" fill-opacity="1"><g transform="translate(69.866136, 97.977556)"><g><path d="M 20.160156 0 L 20.160156 -4.675781 L 7.011719 -4.675781 L 7.011719 -20.453125 L 0.144531 -20.453125 L 0.144531 -15.777344 L 2.335938 -15.777344 L 2.335938 0 Z M 20.160156 0 "/></g></g></g><g fill="#ff0000" fill-opacity="1"><g transform="translate(93.441399, 97.977556)"><g><path d="M 20.160156 0 L 20.160156 -4.675781 L 7.011719 -4.675781 L 7.011719 -20.453125 L 0.144531 -20.453125 L 0.144531 -15.777344 L 2.335938 -15.777344 L 2.335938 0 Z M 20.160156 0 "/></g></g></g><g fill="#ff0000" fill-opacity="1"><g transform="translate(117.016663, 97.977556)"><g><path d="M 17.96875 0 L 20.890625 -2.921875 L 20.890625 -9.640625 L 17.96875 -12.5625 L 6.136719 -12.5625 L 6.136719 -15.777344 L 20.890625 -15.777344 L 20.890625 -20.453125 L 4.382812 -20.453125 L 1.460938 -17.53125 L 1.460938 -10.8125 L 4.382812 -7.890625 L 16.214844 -7.890625 L 16.214844 -4.675781 L 1.460938 -4.675781 L 1.460938 0 Z M 17.96875 0 "/></g></g></g><g fill="#00ffff" fill-opacity="1"><g transform="translate(10.629235, 97.621408)"><g><path d="M 17.96875 0 L 20.890625 -2.921875 L 20.890625 -9.640625 L 17.96875 -12.5625 L 6.136719 -12.5625 L 6.136719 -15.777344 L 20.890625 -15.777344 L 20.890625 -20.453125 L 4.382812 -20.453125 L 1.460938 -17.53125 L 1.460938 -10.8125 L 4.382812 -7.890625 L 16.214844 -7.890625 L 16.214844 -4.675781 L 1.460938 -4.675781 L 1.460938 0 Z M 17.96875 0 "/></g></g></g><g fill="#00ffff" fill-opacity="1"><g transform="translate(36.103268, 97.621408)"><g><path d="M 21.941406 0 L 17.152344 -10.226562 L 21.941406 -20.453125 L 16.800781 -20.453125 L 13.089844 -12.5625 L 7.011719 -12.5625 L 7.011719 -20.453125 L 0.144531 -20.453125 L 0.144531 -15.777344 L 2.335938 -15.777344 L 2.335938 0 L 7.011719 0 L 7.011719 -7.890625 L 13.148438 -7.890625 L 16.800781 0 Z M 21.941406 0 "/></g></g></g><g fill="#00ffff" fill-opacity="1"><g transform="translate(62.044693, 97.621408)"><g><path d="M 6.136719 0 L 6.136719 -20.453125 L 1.460938 -20.453125 L 1.460938 0 Z M 6.136719 0 "/></g></g></g><g fill="#00ffff" fill-opacity="1"><g transform="translate(72.76673, 97.621408)"><g><path d="M 20.160156 0 L 20.160156 -4.675781 L 7.011719 -4.675781 L 7.011719 -20.453125 L 0.144531 -20.453125 L 0.144531 -15.777344 L 2.335938 -15.777344 L 2.335938 0 Z M 20.160156 0 "/></g></g></g><g fill="#00ffff" fill-opacity="1"><g transform="translate(96.341993, 97.621408)"><g><path d="M 20.160156 0 L 20.160156 -4.675781 L 7.011719 -4.675781 L 7.011719 -20.453125 L 0.144531 -20.453125 L 0.144531 -15.777344 L 2.335938 -15.777344 L 2.335938 0 Z M 20.160156 0 "/></g></g></g><g fill="#00ffff" fill-opacity="1"><g transform="translate(119.917257, 97.621408)"><g><path d="M 17.96875 0 L 20.890625 -2.921875 L 20.890625 -9.640625 L 17.96875 -12.5625 L 6.136719 -12.5625 L 6.136719 -15.777344 L 20.890625 -15.777344 L 20.890625 -20.453125 L 4.382812 -20.453125 L 1.460938 -17.53125 L 1.460938 -10.8125 L 4.382812 -7.890625 L 16.214844 -7.890625 L 16.214844 -4.675781 L 1.460938 -4.675781 L 1.460938 0 Z M 17.96875 0 "/></g></g></g><g fill="#38b6ff" fill-opacity="1"><g transform="translate(9.178938, 97.799481)"><g><path d="M 17.96875 0 L 20.890625 -2.921875 L 20.890625 -9.640625 L 17.96875 -12.5625 L 6.136719 -12.5625 L 6.136719 -15.777344 L 20.890625 -15.777344 L 20.890625 -20.453125 L 4.382812 -20.453125 L 1.460938 -17.53125 L 1.460938 -10.8125 L 4.382812 -7.890625 L 16.214844 -7.890625 L 16.214844 -4.675781 L 1.460938 -4.675781 L 1.460938 0 Z M 17.96875 0 "/></g></g></g><g fill="#38b6ff" fill-opacity="1"><g transform="translate(34.652971, 97.799481)"><g><path d="M 21.941406 0 L 17.152344 -10.226562 L 21.941406 -20.453125 L 16.800781 -20.453125 L 13.089844 -12.5625 L 7.011719 -12.5625 L 7.011719 -20.453125 L 0.144531 -20.453125 L 0.144531 -15.777344 L 2.335938 -15.777344 L 2.335938 0 L 7.011719 0 L 7.011719 -7.890625 L 13.148438 -7.890625 L 16.800781 0 Z M 21.941406 0 "/></g></g></g><g fill="#38b6ff" fill-opacity="1"><g transform="translate(60.594396, 97.799481)"><g><path d="M 6.136719 0 L 6.136719 -20.453125 L 1.460938 -20.453125 L 1.460938 0 Z M 6.136719 0 "/></g></g></g><g fill="#38b6ff" fill-opacity="1"><g transform="translate(71.316433, 97.799481)"><g><path d="M 20.160156 0 L 20.160156 -4.675781 L 7.011719 -4.675781 L 7.011719 -20.453125 L 0.144531 -20.453125 L 0.144531 -15.777344 L 2.335938 -15.777344 L 2.335938 0 Z M 20.160156 0 "/></g></g></g><g fill="#38b6ff" fill-opacity="1"><g transform="translate(94.891696, 97.799481)"><g><path d="M 20.160156 0 L 20.160156 -4.675781 L 7.011719 -4.675781 L 7.011719 -20.453125 L 0.144531 -20.453125 L 0.144531 -15.777344 L 2.335938 -15.777344 L 2.335938 0 Z M 20.160156 0 "/></g></g></g><g fill="#38b6ff" fill-opacity="1"><g transform="translate(118.46696, 97.799481)"><g><path d="M 17.96875 0 L 20.890625 -2.921875 L 20.890625 -9.640625 L 17.96875 -12.5625 L 6.136719 -12.5625 L 6.136719 -15.777344 L 20.890625 -15.777344 L 20.890625 -20.453125 L 4.382812 -20.453125 L 1.460938 -17.53125 L 1.460938 -10.8125 L 4.382812 -7.890625 L 16.214844 -7.890625 L 16.214844 -4.675781 L 1.460938 -4.675781 L 1.460938 0 Z M 17.96875 0 "/></g></g></g></svg>