<svg xmlns="http://www.w3.org/2000/svg" xmlns:xlink="http://www.w3.org/1999/xlink" width="400" zoomAndPan="magnify" viewBox="0 0 300 299.999988" height="400" preserveAspectRatio="xMidYMid meet" version="1.0"><defs><clipPath id="c451f28238"><path d="M 75 5 L 225 5 L 225 91 L 75 91 Z M 75 5 " clip-rule="nonzero"/></clipPath><clipPath id="58ab794a2c"><path d="M 83.425781 0.00390625 L 230.195312 64.953125 L 216.234375 96.5 L 69.460938 31.550781 Z M 83.425781 0.00390625 " clip-rule="nonzero"/></clipPath><clipPath id="4f8036b5a7"><path d="M 83.425781 0.00390625 L 230.195312 64.953125 L 216.234375 96.5 L 69.460938 31.550781 Z M 83.425781 0.00390625 " clip-rule="nonzero"/></clipPath><clipPath id="03e6632f0e"><path d="M 51.644531 122.714844 L 212 122.714844 L 212 157.214844 L 51.644531 157.214844 Z M 51.644531 122.714844 " clip-rule="nonzero"/></clipPath><clipPath id="6ba6ee470f"><path d="M 68 188 L 221 188 L 221 268 L 68 268 Z M 68 188 " clip-rule="nonzero"/></clipPath><clipPath id="3c328b95e2"><path d="M 63.71875 240.574219 L 213.6875 183.402344 L 225.976562 215.636719 L 76.007812 272.8125 Z M 63.71875 240.574219 " clip-rule="nonzero"/></clipPath><clipPath id="ba9c9f943e"><path d="M 63.71875 240.574219 L 213.6875 183.402344 L 225.976562 215.636719 L 76.007812 272.8125 Z M 63.71875 240.574219 " clip-rule="nonzero"/></clipPath></defs><g clip-path="url(#c451f28238)"><g clip-path="url(#58ab794a2c)"><g clip-path="url(#4f8036b5a7)"><path fill="#5ce1e6" d="M 214.324219 57.929688 L 99.296875 7.027344 C 98.78125 6.796875 98.257812 6.597656 97.722656 6.421875 C 97.191406 6.246094 96.648438 6.097656 96.101562 5.972656 C 95.550781 5.851562 95 5.757812 94.441406 5.691406 C 93.882812 5.621094 93.324219 5.582031 92.761719 5.570312 C 92.199219 5.558594 91.636719 5.574219 91.078125 5.617188 C 90.515625 5.660156 89.957031 5.730469 89.402344 5.828125 C 88.851562 5.925781 88.300781 6.050781 87.757812 6.203125 C 87.21875 6.355469 86.683594 6.53125 86.160156 6.738281 C 85.632812 6.941406 85.121094 7.171875 84.617188 7.425781 C 84.113281 7.683594 83.625 7.960938 83.152344 8.265625 C 82.675781 8.566406 82.214844 8.894531 81.773438 9.242188 C 81.328125 9.589844 80.902344 9.960938 80.492188 10.351562 C 80.085938 10.742188 79.699219 11.148438 79.332031 11.578125 C 78.960938 12.007812 78.617188 12.453125 78.292969 12.914062 C 77.96875 13.378906 77.667969 13.855469 77.386719 14.347656 C 77.109375 14.835938 76.855469 15.34375 76.628906 15.859375 C 76.398438 16.375 76.195312 16.902344 76.019531 17.4375 C 75.84375 17.976562 75.691406 18.519531 75.566406 19.070312 C 75.445312 19.621094 75.347656 20.175781 75.277344 20.738281 C 75.207031 21.296875 75.164062 21.859375 75.152344 22.421875 C 75.136719 22.988281 75.148438 23.550781 75.191406 24.113281 C 75.230469 24.675781 75.296875 25.238281 75.394531 25.792969 C 75.488281 26.347656 75.613281 26.898438 75.761719 27.441406 C 75.910156 27.984375 76.085938 28.519531 76.285156 29.046875 C 76.488281 29.570312 76.714844 30.085938 76.96875 30.589844 C 77.21875 31.09375 77.496094 31.582031 77.796875 32.058594 C 78.097656 32.535156 78.417969 32.996094 78.765625 33.441406 C 79.109375 33.882812 79.476562 34.308594 79.863281 34.71875 C 80.25 35.125 80.65625 35.511719 81.082031 35.878906 C 81.507812 36.246094 81.949219 36.59375 82.40625 36.917969 C 82.867188 37.242188 83.339844 37.542969 83.828125 37.816406 C 84.320312 38.09375 84.820312 38.347656 85.332031 38.574219 L 200.363281 89.476562 C 200.875 89.703125 201.398438 89.90625 201.933594 90.082031 C 202.46875 90.257812 203.007812 90.40625 203.558594 90.527344 C 204.105469 90.652344 204.660156 90.746094 205.214844 90.8125 C 205.773438 90.882812 206.335938 90.921875 206.898438 90.933594 C 207.457031 90.945312 208.019531 90.929688 208.582031 90.886719 C 209.140625 90.84375 209.699219 90.773438 210.253906 90.675781 C 210.808594 90.578125 211.355469 90.453125 211.898438 90.300781 C 212.441406 90.148438 212.972656 89.96875 213.5 89.765625 C 214.023438 89.5625 214.539062 89.332031 215.039062 89.078125 C 215.542969 88.820312 216.03125 88.542969 216.507812 88.238281 C 216.984375 87.933594 217.441406 87.609375 217.886719 87.261719 C 218.328125 86.914062 218.753906 86.542969 219.164062 86.152344 C 219.570312 85.761719 219.960938 85.351562 220.328125 84.925781 C 220.695312 84.496094 221.042969 84.050781 221.367188 83.589844 C 221.691406 83.125 221.992188 82.648438 222.269531 82.15625 C 222.546875 81.664062 222.800781 81.160156 223.027344 80.644531 C 223.257812 80.128906 223.460938 79.601562 223.636719 79.066406 C 223.816406 78.527344 223.964844 77.984375 224.089844 77.433594 C 224.214844 76.882812 224.308594 76.328125 224.378906 75.765625 C 224.449219 75.207031 224.492188 74.644531 224.507812 74.078125 C 224.519531 73.515625 224.507812 72.953125 224.46875 72.390625 C 224.425781 71.824219 224.359375 71.265625 224.261719 70.710938 C 224.167969 70.15625 224.046875 69.605469 223.898438 69.0625 C 223.746094 68.519531 223.574219 67.984375 223.371094 67.457031 C 223.167969 66.929688 222.941406 66.417969 222.691406 65.914062 C 222.4375 65.410156 222.160156 64.917969 221.863281 64.445312 C 221.5625 63.96875 221.238281 63.507812 220.894531 63.0625 C 220.546875 62.621094 220.183594 62.195312 219.796875 61.785156 C 219.40625 61.378906 219 60.992188 218.578125 60.621094 C 218.152344 60.253906 217.710938 59.910156 217.25 59.585938 C 216.789062 59.261719 216.316406 58.960938 215.828125 58.683594 C 215.339844 58.410156 214.835938 58.15625 214.324219 57.929688 Z M 214.324219 57.929688 " fill-opacity="1" fill-rule="nonzero"/></g></g></g><g clip-path="url(#03e6632f0e)"><path fill="#5ce1e6" d="M 194.789062 122.714844 L 69 122.714844 C 68.441406 122.714844 67.878906 122.742188 67.320312 122.796875 C 66.761719 122.851562 66.207031 122.933594 65.65625 123.046875 C 65.105469 123.15625 64.558594 123.292969 64.023438 123.457031 C 63.484375 123.621094 62.957031 123.8125 62.4375 124.027344 C 61.917969 124.242188 61.410156 124.484375 60.914062 124.75 C 60.421875 125.015625 59.9375 125.308594 59.472656 125.621094 C 59.003906 125.933594 58.554688 126.269531 58.121094 126.628906 C 57.6875 126.988281 57.269531 127.367188 56.871094 127.765625 C 56.476562 128.167969 56.097656 128.585938 55.742188 129.019531 C 55.386719 129.457031 55.050781 129.910156 54.738281 130.378906 C 54.425781 130.851562 54.140625 131.335938 53.875 131.832031 C 53.609375 132.332031 53.371094 132.839844 53.15625 133.363281 C 52.941406 133.886719 52.75 134.417969 52.585938 134.957031 C 52.425781 135.496094 52.289062 136.042969 52.179688 136.597656 C 52.070312 137.152344 51.988281 137.710938 51.929688 138.273438 C 51.875 138.835938 51.847656 139.398438 51.847656 139.964844 C 51.847656 140.527344 51.875 141.09375 51.929688 141.65625 C 51.988281 142.21875 52.070312 142.777344 52.179688 143.328125 C 52.289062 143.882812 52.425781 144.429688 52.585938 144.972656 C 52.75 145.511719 52.941406 146.042969 53.15625 146.566406 C 53.371094 147.085938 53.609375 147.597656 53.875 148.097656 C 54.140625 148.59375 54.425781 149.078125 54.738281 149.546875 C 55.050781 150.019531 55.386719 150.472656 55.742188 150.90625 C 56.097656 151.34375 56.476562 151.761719 56.871094 152.160156 C 57.269531 152.5625 57.6875 152.941406 58.121094 153.296875 C 58.554688 153.65625 59.003906 153.992188 59.472656 154.308594 C 59.9375 154.621094 60.421875 154.910156 60.914062 155.175781 C 61.410156 155.445312 61.917969 155.683594 62.4375 155.902344 C 62.957031 156.117188 63.484375 156.308594 64.023438 156.472656 C 64.558594 156.636719 65.105469 156.773438 65.65625 156.882812 C 66.207031 156.992188 66.761719 157.074219 67.320312 157.132812 C 67.878906 157.1875 68.441406 157.214844 69 157.214844 L 194.789062 157.214844 C 195.351562 157.214844 195.914062 157.1875 196.472656 157.132812 C 197.03125 157.074219 197.585938 156.992188 198.136719 156.882812 C 198.6875 156.773438 199.230469 156.636719 199.769531 156.472656 C 200.308594 156.308594 200.835938 156.117188 201.355469 155.902344 C 201.875 155.683594 202.378906 155.445312 202.875 155.175781 C 203.371094 154.910156 203.851562 154.621094 204.320312 154.308594 C 204.789062 153.992188 205.238281 153.65625 205.671875 153.296875 C 206.105469 152.941406 206.523438 152.5625 206.917969 152.160156 C 207.316406 151.761719 207.691406 151.34375 208.050781 150.90625 C 208.40625 150.472656 208.742188 150.019531 209.050781 149.546875 C 209.363281 149.078125 209.652344 148.59375 209.917969 148.097656 C 210.183594 147.597656 210.421875 147.085938 210.636719 146.566406 C 210.851562 146.042969 211.042969 145.511719 211.203125 144.972656 C 211.367188 144.429688 211.503906 143.882812 211.613281 143.328125 C 211.722656 142.777344 211.804688 142.21875 211.859375 141.65625 C 211.914062 141.09375 211.941406 140.527344 211.941406 139.964844 C 211.941406 139.398438 211.914062 138.835938 211.859375 138.273438 C 211.804688 137.710938 211.722656 137.152344 211.613281 136.597656 C 211.503906 136.042969 211.367188 135.496094 211.203125 134.957031 C 211.042969 134.417969 210.851562 133.886719 210.636719 133.363281 C 210.421875 132.839844 210.183594 132.332031 209.917969 131.832031 C 209.652344 131.335938 209.363281 130.851562 209.050781 130.378906 C 208.742188 129.910156 208.40625 129.457031 208.050781 129.019531 C 207.691406 128.585938 207.316406 128.167969 206.917969 127.765625 C 206.523438 127.367188 206.105469 126.988281 205.671875 126.628906 C 205.238281 126.269531 204.785156 125.933594 204.320312 125.621094 C 203.851562 125.308594 203.371094 125.015625 202.875 124.75 C 202.378906 124.484375 201.875 124.242188 201.355469 124.027344 C 200.835938 123.8125 200.308594 123.621094 199.769531 123.457031 C 199.230469 123.292969 198.6875 123.15625 198.136719 123.046875 C 197.585938 122.933594 197.03125 122.851562 196.472656 122.796875 C 195.914062 122.742188 195.351562 122.714844 194.789062 122.714844 Z M 194.789062 122.714844 " fill-opacity="1" fill-rule="nonzero"/></g><g clip-path="url(#6ba6ee470f)"><g clip-path="url(#3c328b95e2)"><g clip-path="url(#ba9c9f943e)"><path fill="#5ce1e6" d="M 197.472656 189.582031 L 79.933594 234.390625 C 79.410156 234.59375 78.894531 234.816406 78.394531 235.070312 C 77.890625 235.320312 77.402344 235.59375 76.925781 235.894531 C 76.449219 236.195312 75.992188 236.515625 75.546875 236.859375 C 75.101562 237.207031 74.675781 237.570312 74.269531 237.957031 C 73.859375 238.34375 73.472656 238.75 73.105469 239.175781 C 72.738281 239.601562 72.390625 240.042969 72.066406 240.503906 C 71.742188 240.964844 71.441406 241.4375 71.160156 241.925781 C 70.882812 242.417969 70.628906 242.917969 70.402344 243.433594 C 70.171875 243.949219 69.96875 244.472656 69.792969 245.007812 C 69.613281 245.542969 69.464844 246.085938 69.339844 246.636719 C 69.214844 247.1875 69.117188 247.742188 69.046875 248.300781 C 68.976562 248.863281 68.933594 249.421875 68.921875 249.988281 C 68.90625 250.550781 68.917969 251.117188 68.957031 251.679688 C 69 252.242188 69.066406 252.800781 69.160156 253.359375 C 69.253906 253.917969 69.378906 254.46875 69.527344 255.011719 C 69.675781 255.558594 69.851562 256.09375 70.050781 256.621094 C 70.253906 257.148438 70.480469 257.664062 70.730469 258.171875 C 70.984375 258.675781 71.257812 259.167969 71.558594 259.648438 C 71.859375 260.128906 72.179688 260.589844 72.527344 261.035156 C 72.871094 261.484375 73.234375 261.914062 73.625 262.324219 C 74.011719 262.734375 74.414062 263.125 74.839844 263.496094 C 75.265625 263.871094 75.707031 264.21875 76.167969 264.546875 C 76.625 264.875 77.097656 265.179688 77.589844 265.460938 C 78.078125 265.742188 78.578125 265.996094 79.089844 266.230469 C 79.605469 266.460938 80.128906 266.667969 80.660156 266.847656 C 81.195312 267.027344 81.734375 267.179688 82.285156 267.308594 C 82.832031 267.433594 83.386719 267.535156 83.941406 267.605469 C 84.5 267.679688 85.0625 267.722656 85.621094 267.742188 C 86.183594 267.757812 86.746094 267.746094 87.308594 267.710938 C 87.867188 267.671875 88.425781 267.605469 88.980469 267.511719 C 89.535156 267.417969 90.082031 267.296875 90.625 267.152344 C 91.164062 267.003906 91.699219 266.828125 92.222656 266.628906 L 209.761719 221.820312 C 210.285156 221.621094 210.800781 221.394531 211.300781 221.144531 C 211.804688 220.894531 212.292969 220.617188 212.769531 220.320312 C 213.246094 220.019531 213.707031 219.699219 214.148438 219.351562 C 214.59375 219.007812 215.019531 218.640625 215.425781 218.253906 C 215.835938 217.867188 216.222656 217.460938 216.589844 217.039062 C 216.960938 216.613281 217.304688 216.167969 217.628906 215.710938 C 217.953125 215.25 218.257812 214.773438 218.535156 214.285156 C 218.8125 213.796875 219.066406 213.292969 219.292969 212.777344 C 219.523438 212.265625 219.726562 211.738281 219.902344 211.203125 C 220.082031 210.667969 220.234375 210.125 220.355469 209.578125 C 220.480469 209.027344 220.578125 208.472656 220.648438 207.910156 C 220.71875 207.351562 220.761719 206.789062 220.777344 206.226562 C 220.789062 205.660156 220.777344 205.097656 220.738281 204.535156 C 220.699219 203.972656 220.628906 203.410156 220.535156 202.855469 C 220.441406 202.296875 220.316406 201.746094 220.167969 201.203125 C 220.019531 200.65625 219.84375 200.121094 219.644531 199.59375 C 219.441406 199.0625 219.214844 198.546875 218.964844 198.042969 C 218.710938 197.535156 218.4375 197.042969 218.136719 196.566406 C 217.835938 196.085938 217.515625 195.625 217.171875 195.175781 C 216.824219 194.730469 216.460938 194.300781 216.074219 193.890625 C 215.6875 193.476562 215.28125 193.085938 214.855469 192.714844 C 214.429688 192.34375 213.988281 191.996094 213.527344 191.667969 C 213.070312 191.339844 212.597656 191.035156 212.109375 190.753906 C 211.617188 190.472656 211.117188 190.214844 210.605469 189.984375 C 210.089844 189.753906 209.566406 189.546875 209.035156 189.367188 C 208.5 189.1875 207.960938 189.03125 207.410156 188.90625 C 206.863281 188.777344 206.308594 188.679688 205.753906 188.605469 C 205.195312 188.535156 204.636719 188.488281 204.074219 188.472656 C 203.511719 188.457031 202.949219 188.464844 202.390625 188.503906 C 201.828125 188.542969 201.269531 188.609375 200.714844 188.703125 C 200.164062 188.792969 199.613281 188.914062 199.070312 189.0625 C 198.53125 189.210938 197.996094 189.382812 197.472656 189.582031 Z M 197.472656 189.582031 " fill-opacity="1" fill-rule="nonzero"/></g></g></g></svg>