<svg xmlns="http://www.w3.org/2000/svg" xmlns:xlink="http://www.w3.org/1999/xlink" width="100" zoomAndPan="magnify" viewBox="0 0 75 74.999997" height="100" preserveAspectRatio="xMidYMid meet" version="1.0"><defs><clipPath id="bc443c963a"><path d="M 3.601562 3.449219 L 71.851562 3.449219 L 71.851562 71.699219 L 3.601562 71.699219 Z M 3.601562 3.449219 " clip-rule="nonzero"/></clipPath></defs><g clip-path="url(#bc443c963a)"><path fill="#f03c2e" d="M 70.5625 34.535156 L 40.765625 4.738281 C 40.558594 4.535156 40.339844 4.351562 40.097656 4.191406 C 39.859375 4.03125 39.605469 3.894531 39.339844 3.785156 C 39.070312 3.675781 38.796875 3.589844 38.515625 3.535156 C 38.230469 3.480469 37.945312 3.449219 37.65625 3.449219 C 37.367188 3.449219 37.082031 3.480469 36.800781 3.535156 C 36.515625 3.589844 36.242188 3.675781 35.976562 3.785156 C 35.707031 3.894531 35.453125 4.03125 35.214844 4.191406 C 34.976562 4.351562 34.753906 4.535156 34.550781 4.738281 L 28.363281 10.921875 L 36.210938 18.773438 C 38.039062 18.132812 40.128906 18.570312 41.582031 20.023438 C 41.929688 20.371094 42.222656 20.757812 42.457031 21.1875 C 42.695312 21.617188 42.867188 22.070312 42.976562 22.546875 C 43.085938 23.023438 43.128906 23.507812 43.101562 23.996094 C 43.078125 24.488281 42.984375 24.964844 42.824219 25.425781 L 50.386719 32.992188 C 52.21875 32.359375 54.328125 32.769531 55.789062 34.234375 C 56.03125 34.476562 56.25 34.738281 56.441406 35.027344 C 56.632812 35.3125 56.792969 35.613281 56.925781 35.929688 C 57.054688 36.246094 57.15625 36.574219 57.222656 36.910156 C 57.289062 37.25 57.324219 37.589844 57.324219 37.933594 C 57.324219 38.277344 57.289062 38.617188 57.222656 38.953125 C 57.15625 39.289062 57.054688 39.617188 56.925781 39.933594 C 56.792969 40.253906 56.632812 40.554688 56.441406 40.839844 C 56.25 41.125 56.035156 41.390625 55.789062 41.632812 C 55.546875 41.875 55.285156 42.09375 54.996094 42.28125 C 54.710938 42.472656 54.410156 42.636719 54.09375 42.765625 C 53.777344 42.898438 53.449219 42.996094 53.109375 43.0625 C 52.773438 43.128906 52.433594 43.164062 52.089844 43.164062 C 51.746094 43.164062 51.40625 43.128906 51.070312 43.0625 C 50.734375 42.996094 50.40625 42.894531 50.089844 42.765625 C 49.769531 42.632812 49.46875 42.472656 49.183594 42.28125 C 48.898438 42.089844 48.632812 41.871094 48.390625 41.628906 C 46.855469 40.09375 46.476562 37.832031 47.253906 35.941406 L 40.195312 28.886719 L 40.195312 47.453125 C 40.710938 47.707031 41.175781 48.035156 41.582031 48.441406 C 41.824219 48.683594 42.042969 48.949219 42.234375 49.234375 C 42.425781 49.519531 42.585938 49.820312 42.71875 50.136719 C 42.847656 50.457031 42.949219 50.78125 43.015625 51.121094 C 43.082031 51.457031 43.113281 51.796875 43.113281 52.140625 C 43.113281 52.484375 43.082031 52.824219 43.015625 53.160156 C 42.949219 53.496094 42.847656 53.824219 42.71875 54.140625 C 42.585938 54.457031 42.425781 54.761719 42.234375 55.046875 C 42.042969 55.332031 41.824219 55.59375 41.582031 55.839844 C 41.339844 56.082031 41.078125 56.296875 40.789062 56.488281 C 40.503906 56.679688 40.203125 56.839844 39.886719 56.972656 C 39.570312 57.101562 39.242188 57.203125 38.90625 57.269531 C 38.570312 57.335938 38.226562 57.371094 37.886719 57.371094 C 37.542969 57.371094 37.203125 57.335938 36.863281 57.269531 C 36.527344 57.203125 36.199219 57.101562 35.882812 56.972656 C 35.566406 56.839844 35.265625 56.679688 34.980469 56.488281 C 34.695312 56.296875 34.429688 56.082031 34.1875 55.839844 C 33.945312 55.59375 33.726562 55.332031 33.535156 55.046875 C 33.34375 54.761719 33.183594 54.460938 33.050781 54.140625 C 32.917969 53.824219 32.820312 53.496094 32.753906 53.160156 C 32.6875 52.824219 32.652344 52.484375 32.652344 52.140625 C 32.652344 51.796875 32.6875 51.457031 32.753906 51.121094 C 32.820312 50.78125 32.917969 50.457031 33.050781 50.136719 C 33.183594 49.820312 33.34375 49.519531 33.535156 49.234375 C 33.726562 48.949219 33.945312 48.683594 34.1875 48.441406 C 34.691406 47.9375 35.253906 47.554688 35.898438 47.300781 L 35.898438 28.5625 C 35.277344 28.304688 34.691406 27.929688 34.1875 27.421875 C 33.820312 27.054688 33.515625 26.640625 33.269531 26.183594 C 33.023438 25.726562 32.851562 25.242188 32.753906 24.734375 C 32.652344 24.222656 32.628906 23.710938 32.679688 23.195312 C 32.734375 22.679688 32.859375 22.179688 33.058594 21.703125 L 25.320312 13.964844 L 4.886719 34.375 C 4.683594 34.578125 4.5 34.800781 4.339844 35.042969 C 4.179688 35.28125 4.042969 35.535156 3.933594 35.800781 C 3.820312 36.070312 3.738281 36.34375 3.683594 36.625 C 3.625 36.910156 3.597656 37.195312 3.597656 37.484375 C 3.597656 37.773438 3.625 38.058594 3.683594 38.34375 C 3.738281 38.625 3.820312 38.898438 3.933594 39.167969 C 4.042969 39.433594 4.179688 39.6875 4.339844 39.925781 C 4.5 40.167969 4.683594 40.390625 4.886719 40.59375 L 34.6875 70.386719 C 34.890625 70.59375 35.113281 70.773438 35.351562 70.933594 C 35.589844 71.09375 35.84375 71.230469 36.113281 71.339844 C 36.378906 71.453125 36.652344 71.535156 36.9375 71.589844 C 37.21875 71.648438 37.503906 71.675781 37.792969 71.675781 C 38.082031 71.675781 38.367188 71.648438 38.652344 71.589844 C 38.933594 71.535156 39.207031 71.453125 39.476562 71.339844 C 39.742188 71.230469 39.996094 71.09375 40.234375 70.933594 C 40.476562 70.773438 40.695312 70.59375 40.902344 70.386719 L 70.5625 40.773438 C 70.765625 40.570312 70.949219 40.347656 71.109375 40.109375 C 71.269531 39.867188 71.40625 39.613281 71.515625 39.347656 C 71.625 39.082031 71.710938 38.804688 71.765625 38.523438 C 71.824219 38.242188 71.851562 37.953125 71.851562 37.664062 C 71.851562 37.375 71.824219 37.089844 71.765625 36.808594 C 71.710938 36.523438 71.625 36.25 71.515625 35.984375 C 71.40625 35.714844 71.269531 35.464844 71.109375 35.222656 C 70.949219 34.984375 70.765625 34.761719 70.5625 34.558594 " fill-opacity="1" fill-rule="nonzero"/></g></svg>