<svg xmlns="http://www.w3.org/2000/svg" xmlns:xlink="http://www.w3.org/1999/xlink" width="100"
    zoomAndPan="magnify" viewBox="0 0 75 74.999997" height="100" preserveAspectRatio="xMidYMid meet"
    version="1.0">
    <defs>
        <clipPath id="93811b4e53">
            <path d="M 0.75 0 L 75 0 L 75 74.25 L 0.75 74.25 Z M 0.75 0 " clip-rule="nonzero" />
        </clipPath>
    </defs>
    <g clip-path="url(#93811b4e53)">
        <path fill="#a1a1a1"
            d="M 37.890625 0 C 36.675781 0 35.464844 0.0585938 34.253906 0.179688 C 33.042969 0.300781 31.839844 0.476562 30.648438 0.714844 C 29.457031 0.953125 28.277344 1.25 27.113281 1.601562 C 25.953125 1.957031 24.808594 2.367188 23.683594 2.832031 C 22.5625 3.296875 21.464844 3.816406 20.390625 4.390625 C 19.320312 4.964844 18.277344 5.589844 17.265625 6.265625 C 16.257812 6.941406 15.28125 7.664062 14.339844 8.4375 C 13.402344 9.207031 12.5 10.023438 11.640625 10.882812 C 10.78125 11.742188 9.96875 12.644531 9.195312 13.585938 C 8.425781 14.523438 7.703125 15.5 7.027344 16.511719 C 6.351562 17.523438 5.726562 18.566406 5.152344 19.636719 C 4.582031 20.710938 4.0625 21.808594 3.597656 22.929688 C 3.132812 24.054688 2.722656 25.199219 2.371094 26.363281 C 2.019531 27.527344 1.722656 28.703125 1.488281 29.898438 C 1.25 31.089844 1.070312 32.292969 0.953125 33.5 C 0.835938 34.710938 0.773438 35.925781 0.777344 37.140625 C 0.777344 38.355469 0.835938 39.570312 0.957031 40.78125 C 1.074219 41.988281 1.253906 43.191406 1.492188 44.382812 C 1.730469 45.578125 2.023438 46.753906 2.378906 47.917969 C 2.730469 49.082031 3.140625 50.226562 3.605469 51.347656 C 4.070312 52.472656 4.589844 53.570312 5.164062 54.640625 C 5.738281 55.714844 6.363281 56.753906 7.039062 57.765625 C 7.714844 58.777344 8.4375 59.753906 9.210938 60.691406 C 9.980469 61.632812 10.796875 62.53125 11.65625 63.390625 C 12.519531 64.25 13.417969 65.066406 14.359375 65.835938 C 15.296875 66.609375 16.273438 67.332031 17.285156 68.007812 C 18.296875 68.683594 19.339844 69.304688 20.410156 69.878906 C 21.484375 70.453125 22.582031 70.972656 23.707031 71.4375 C 24.828125 71.902344 25.972656 72.308594 27.136719 72.664062 C 28.300781 73.015625 29.480469 73.308594 30.671875 73.546875 C 31.863281 73.785156 33.066406 73.960938 34.277344 74.082031 C 35.484375 74.199219 36.699219 74.257812 37.914062 74.257812 C 39.132812 74.257812 40.34375 74.199219 41.554688 74.078125 C 42.765625 73.960938 43.964844 73.78125 45.15625 73.542969 C 46.351562 73.304688 47.527344 73.011719 48.691406 72.65625 C 49.855469 72.304688 51 71.894531 52.121094 71.429688 C 53.246094 70.964844 54.34375 70.441406 55.414062 69.871094 C 56.488281 69.296875 57.53125 68.671875 58.539062 67.996094 C 59.550781 67.320312 60.527344 66.597656 61.464844 65.824219 C 62.40625 65.054688 63.304688 64.238281 64.164062 63.378906 C 65.027344 62.515625 65.839844 61.617188 66.613281 60.675781 C 67.382812 59.738281 68.105469 58.761719 68.78125 57.75 C 69.457031 56.738281 70.082031 55.695312 70.652344 54.625 C 71.226562 53.550781 71.746094 52.453125 72.210938 51.328125 C 72.675781 50.207031 73.085938 49.0625 73.4375 47.898438 C 73.789062 46.734375 74.085938 45.558594 74.324219 44.363281 C 74.558594 43.171875 74.738281 41.96875 74.855469 40.761719 C 74.976562 39.550781 75.035156 38.335938 75.035156 37.121094 C 75.03125 35.90625 74.96875 34.691406 74.847656 33.484375 C 74.726562 32.273438 74.546875 31.074219 74.308594 29.882812 C 74.070312 28.691406 73.773438 27.511719 73.417969 26.351562 C 73.0625 25.1875 72.652344 24.042969 72.1875 22.921875 C 71.71875 21.800781 71.199219 20.703125 70.625 19.632812 C 70.050781 18.558594 69.425781 17.519531 68.75 16.507812 C 68.074219 15.5 67.351562 14.523438 66.578125 13.585938 C 65.808594 12.644531 64.992188 11.746094 64.132812 10.886719 C 63.273438 10.027344 62.371094 9.214844 61.433594 8.441406 C 60.492188 7.671875 59.519531 6.949219 58.507812 6.273438 C 57.496094 5.597656 56.457031 4.972656 55.382812 4.398438 C 54.3125 3.824219 53.214844 3.304688 52.09375 2.839844 C 50.96875 2.375 49.828125 1.964844 48.664062 1.609375 C 47.5 1.257812 46.324219 0.960938 45.132812 0.722656 C 43.941406 0.484375 42.738281 0.304688 41.53125 0.183594 C 40.320312 0.0625 39.109375 0 37.890625 0 Z M 48.144531 68.449219 C 46.535156 68.777344 45.941406 67.785156 45.941406 66.933594 C 45.941406 65.84375 45.988281 62.382812 45.988281 58.070312 C 45.988281 55.082031 44.972656 53.125 43.808594 52.128906 C 50.964844 51.320312 58.496094 48.601562 58.496094 36.230469 C 58.519531 34.632812 58.246094 33.085938 57.675781 31.589844 C 57.101562 30.097656 56.269531 28.761719 55.179688 27.589844 C 55.511719 26.78125 56.648438 23.488281 54.871094 19.046875 C 54.871094 19.046875 52.167969 18.164062 46.011719 22.335938 C 43.378906 21.625 40.699219 21.269531 37.972656 21.269531 C 35.242188 21.269531 32.5625 21.625 29.929688 22.335938 C 23.773438 18.214844 21.066406 19.046875 21.066406 19.046875 C 19.316406 23.472656 20.433594 26.765625 20.761719 27.589844 C 19.679688 28.765625 18.855469 30.101562 18.285156 31.59375 C 17.71875 33.089844 17.445312 34.632812 17.472656 36.230469 C 17.472656 48.546875 24.957031 51.320312 32.109375 52.128906 C 31.183594 52.933594 30.332031 54.328125 30.046875 56.4375 C 28.199219 57.269531 23.582031 58.640625 20.691406 53.785156 C 20.078125 52.8125 18.273438 50.445312 15.742188 50.472656 C 13.039062 50.519531 14.652344 52.007812 15.765625 52.605469 C 17.136719 53.390625 18.703125 56.230469 19.082031 57.152344 C 19.71875 58.976562 21.804688 62.433594 29.882812 60.941406 C 29.882812 63.640625 29.929688 66.179688 29.929688 66.921875 C 29.929688 67.777344 29.339844 68.722656 27.722656 68.441406 C 27.128906 68.238281 26.539062 68.023438 25.953125 67.789062 C 25.371094 67.554688 24.792969 67.300781 24.222656 67.035156 C 23.65625 66.765625 23.09375 66.480469 22.542969 66.179688 C 21.988281 65.878906 21.445312 65.558594 20.910156 65.226562 C 20.378906 64.894531 19.855469 64.546875 19.339844 64.179688 C 18.828125 63.816406 18.324219 63.4375 17.835938 63.042969 C 17.34375 62.652344 16.863281 62.242188 16.398438 61.820312 C 15.929688 61.402344 15.476562 60.964844 15.035156 60.515625 C 14.59375 60.070312 14.164062 59.609375 13.75 59.132812 C 13.335938 58.660156 12.933594 58.175781 12.550781 57.679688 C 12.164062 57.183594 11.792969 56.675781 11.4375 56.15625 C 11.078125 55.636719 10.738281 55.109375 10.414062 54.570312 C 10.089844 54.03125 9.78125 53.480469 9.488281 52.925781 C 9.195312 52.367188 8.917969 51.804688 8.65625 51.230469 C 8.398438 50.65625 8.15625 50.078125 7.929688 49.488281 C 7.703125 48.902344 7.496094 48.308594 7.304688 47.707031 C 7.113281 47.109375 6.941406 46.503906 6.785156 45.894531 C 6.628906 45.285156 6.492188 44.671875 6.375 44.050781 C 6.253906 43.433594 6.152344 42.8125 6.070312 42.191406 C 5.988281 41.566406 5.921875 40.941406 5.878906 40.3125 C 5.832031 39.683594 5.804688 39.058594 5.792969 38.429688 C 5.785156 37.796875 5.792969 37.167969 5.824219 36.539062 C 5.851562 35.914062 5.898438 35.285156 5.960938 34.660156 C 6.027344 34.03125 6.109375 33.410156 6.210938 32.789062 C 6.3125 32.167969 6.429688 31.550781 6.566406 30.9375 C 6.707031 30.320312 6.859375 29.710938 7.035156 29.105469 C 7.207031 28.503906 7.398438 27.902344 7.605469 27.308594 C 7.816406 26.714844 8.042969 26.128906 8.285156 25.546875 C 8.527344 24.96875 8.789062 24.394531 9.0625 23.828125 C 9.339844 23.265625 9.632812 22.707031 9.941406 22.160156 C 10.253906 21.613281 10.578125 21.074219 10.917969 20.542969 C 11.257812 20.015625 11.617188 19.496094 11.988281 18.988281 C 12.359375 18.480469 12.746094 17.984375 13.144531 17.5 C 13.546875 17.011719 13.960938 16.539062 14.390625 16.078125 C 14.816406 15.617188 15.257812 15.171875 15.714844 14.734375 C 16.167969 14.300781 16.636719 13.878906 17.113281 13.472656 C 17.59375 13.0625 18.085938 12.671875 18.585938 12.292969 C 19.089844 11.914062 19.601562 11.550781 20.128906 11.199219 C 20.652344 10.851562 21.183594 10.519531 21.726562 10.203125 C 22.273438 9.882812 22.824219 9.582031 23.386719 9.296875 C 23.945312 9.015625 24.515625 8.746094 25.09375 8.496094 C 25.667969 8.242188 26.253906 8.007812 26.84375 7.792969 C 27.433594 7.574219 28.03125 7.375 28.632812 7.191406 C 29.234375 7.011719 29.84375 6.847656 30.453125 6.699219 C 31.066406 6.554688 31.683594 6.425781 32.300781 6.316406 C 32.921875 6.203125 33.542969 6.113281 34.167969 6.039062 C 34.792969 5.964844 35.421875 5.910156 36.046875 5.871094 C 36.675781 5.835938 37.304688 5.816406 37.933594 5.816406 C 38.5625 5.816406 39.191406 5.835938 39.820312 5.871094 C 40.449219 5.910156 41.074219 5.964844 41.699219 6.039062 C 42.324219 6.113281 42.949219 6.203125 43.566406 6.316406 C 44.1875 6.425781 44.804688 6.554688 45.414062 6.699219 C 46.027344 6.847656 46.632812 7.011719 47.238281 7.191406 C 47.839844 7.375 48.433594 7.574219 49.027344 7.792969 C 49.617188 8.007812 50.199219 8.242188 50.777344 8.496094 C 51.355469 8.746094 51.921875 9.015625 52.484375 9.296875 C 53.046875 9.582031 53.597656 9.882812 54.140625 10.203125 C 54.683594 10.519531 55.21875 10.851562 55.742188 11.199219 C 56.265625 11.550781 56.777344 11.914062 57.28125 12.292969 C 57.785156 12.671875 58.273438 13.0625 58.753906 13.472656 C 59.234375 13.878906 59.703125 14.300781 60.15625 14.734375 C 60.609375 15.171875 61.050781 15.617188 61.480469 16.078125 C 61.910156 16.539062 62.324219 17.011719 62.722656 17.5 C 63.125 17.984375 63.511719 18.480469 63.882812 18.988281 C 64.253906 19.496094 64.609375 20.015625 64.949219 20.542969 C 65.292969 21.074219 65.617188 21.613281 65.925781 22.160156 C 66.234375 22.707031 66.527344 23.265625 66.804688 23.828125 C 67.082031 24.394531 67.339844 24.96875 67.585938 25.546875 C 67.828125 26.128906 68.054688 26.714844 68.261719 27.308594 C 68.472656 27.902344 68.660156 28.503906 68.835938 29.105469 C 69.007812 29.710938 69.164062 30.320312 69.300781 30.9375 C 69.4375 31.550781 69.558594 32.167969 69.660156 32.789062 C 69.761719 33.410156 69.84375 34.03125 69.910156 34.660156 C 69.972656 35.285156 70.019531 35.914062 70.046875 36.539062 C 70.074219 37.167969 70.085938 37.796875 70.074219 38.429688 C 70.066406 39.058594 70.039062 39.683594 69.992188 40.3125 C 69.945312 40.941406 69.882812 41.566406 69.800781 42.191406 C 69.714844 42.8125 69.613281 43.433594 69.496094 44.050781 C 69.375 44.671875 69.238281 45.285156 69.085938 45.894531 C 68.929688 46.503906 68.753906 47.109375 68.566406 47.707031 C 68.375 48.308594 68.164062 48.902344 67.941406 49.488281 C 67.714844 50.078125 67.472656 50.65625 67.210938 51.230469 C 66.953125 51.804688 66.675781 52.367188 66.382812 52.925781 C 66.089844 53.480469 65.78125 54.03125 65.457031 54.570312 C 65.128906 55.109375 64.789062 55.636719 64.433594 56.15625 C 64.078125 56.675781 63.707031 57.183594 63.320312 57.679688 C 62.933594 58.175781 62.535156 58.660156 62.121094 59.132812 C 61.703125 59.609375 61.277344 60.070312 60.835938 60.515625 C 60.394531 60.964844 59.9375 61.402344 59.472656 61.820312 C 59.003906 62.242188 58.527344 62.652344 58.035156 63.042969 C 57.542969 63.4375 57.042969 63.816406 56.527344 64.179688 C 56.015625 64.546875 55.492188 64.894531 54.957031 65.226562 C 54.421875 65.558594 53.878906 65.878906 53.328125 66.179688 C 52.777344 66.480469 52.214844 66.765625 51.644531 67.035156 C 51.078125 67.300781 50.5 67.554688 49.917969 67.789062 C 49.332031 68.023438 48.742188 68.238281 48.144531 68.441406 Z M 48.144531 68.449219 "
            fill-opacity="1" fill-rule="evenodd" />
    </g>
</svg>