<svg xmlns="http://www.w3.org/2000/svg" xmlns:xlink="http://www.w3.org/1999/xlink" width="120"
    zoomAndPan="magnify" viewBox="0 0 90 89.999999" height="120" preserveAspectRatio="xMidYMid meet"
    version="1.0">
    <defs>
        <clipPath id="763c108cce">
            <path
                d="M 7.632812 3.074219 L 82.632812 3.074219 L 82.632812 87 L 7.632812 87 Z M 7.632812 3.074219 "
                clip-rule="nonzero" />
        </clipPath>
    </defs>
    <g clip-path="url(#763c108cce)">
        <path fill="#01f8f8"
            d="M 82.222656 3.769531 C 81.875 3.394531 81.386719 3.179688 80.875 3.179688 L 9.574219 3.179688 C 9.0625 3.179688 8.574219 3.394531 8.230469 3.769531 C 7.882812 4.148438 7.710938 4.65625 7.757812 5.164062 L 14.183594 76.980469 C 14.25 77.730469 14.773438 78.363281 15.5 78.570312 L 44.714844 86.902344 C 44.878906 86.945312 45.046875 86.972656 45.214844 86.972656 C 45.386719 86.972656 45.554688 86.945312 45.714844 86.902344 L 74.957031 78.570312 C 75.683594 78.363281 76.207031 77.730469 76.273438 76.980469 L 82.695312 5.164062 C 82.738281 4.652344 82.566406 4.148438 82.222656 3.769531 Z M 66.84375 28.535156 L 32.515625 28.535156 L 33.332031 37.804688 L 66.015625 37.804688 L 63.566406 65.203125 L 45.214844 70.742188 L 45.035156 70.6875 L 26.890625 65.199219 L 25.902344 54.035156 L 34.789062 54.035156 L 35.179688 58.367188 L 45.316406 60.488281 L 55.273438 58.363281 L 56.335938 46.644531 L 25.234375 46.644531 L 22.824219 19.671875 L 67.640625 19.671875 Z M 66.84375 28.535156 "
            fill-opacity="1" fill-rule="nonzero" />
    </g>
</svg>