<svg xmlns="http://www.w3.org/2000/svg" xmlns:xlink="http://www.w3.org/1999/xlink" width="120" zoomAndPan="magnify" viewBox="0 0 90 89.999999" height="120" preserveAspectRatio="xMidYMid meet" version="1.0"><defs><clipPath id="47c0b20169"><path d="M 9 3.070312 L 84 3.070312 L 84 87 L 9 87 Z M 9 3.070312 " clip-rule="nonzero"/></clipPath></defs><g clip-path="url(#47c0b20169)"><path fill="#ffde59" d="M 83.585938 3.765625 C 83.242188 3.390625 82.753906 3.175781 82.242188 3.175781 L 10.941406 3.175781 C 10.429688 3.175781 9.941406 3.390625 9.59375 3.765625 C 9.25 4.144531 9.078125 4.648438 9.125 5.160156 L 15.546875 76.976562 C 15.613281 77.726562 16.140625 78.359375 16.863281 78.566406 L 46.082031 86.898438 C 46.242188 86.941406 46.414062 86.964844 46.582031 86.964844 C 46.75 86.964844 46.917969 86.941406 47.082031 86.898438 L 76.320312 78.566406 C 77.046875 78.359375 77.570312 77.726562 77.640625 76.976562 L 84.058594 5.160156 C 84.105469 4.648438 83.933594 4.144531 83.585938 3.765625 Z M 22.867188 52.363281 L 35.640625 55.902344 L 35.640625 19.570312 L 42.941406 19.570312 L 42.941406 66.929688 L 22.867188 61.371094 Z M 70.414062 39.605469 L 68.488281 61.921875 L 50.242188 66.929688 L 50.242188 58.546875 L 62.558594 55.167969 L 63.015625 48.339844 L 50.242188 50.535156 L 50.242188 19.570312 L 72.140625 19.570312 L 71.507812 26.855469 L 57.539062 26.855469 L 57.539062 41.425781 Z M 70.414062 39.605469 " fill-opacity="1" fill-rule="nonzero"/></g></svg>