<svg xmlns="http://www.w3.org/2000/svg" xmlns:xlink="http://www.w3.org/1999/xlink" width="100"
    zoomAndPan="magnify" viewBox="0 0 75 74.999997" height="100" preserveAspectRatio="xMidYMid meet"
    version="1.0">
    <defs>
        <clipPath id="a4d6fd795f">
            <path d="M 0.847656 4 L 74.347656 4 L 74.347656 71 L 0.847656 71 Z M 0.847656 4 "
                clip-rule="nonzero" />
        </clipPath>
    </defs>
    <g clip-path="url(#a4d6fd795f)">
        <path fill="#01f8f8"
            d="M 61.25 26.027344 C 60.46875 25.761719 59.679688 25.511719 58.886719 25.285156 C 59.019531 24.742188 59.144531 24.203125 59.253906 23.675781 C 61.042969 15.011719 59.871094 8.03125 55.875 5.730469 C 52.042969 3.527344 45.773438 5.824219 39.445312 11.320312 C 38.820312 11.863281 38.210938 12.417969 37.613281 12.992188 C 37.214844 12.613281 36.808594 12.238281 36.398438 11.871094 C 29.761719 6 23.113281 3.523438 19.121094 5.828125 C 15.289062 8.039062 14.15625 14.601562 15.769531 22.8125 C 15.929688 23.625 16.109375 24.433594 16.3125 25.238281 C 15.371094 25.507812 14.460938 25.789062 13.59375 26.09375 C 5.8125 28.796875 0.847656 33.035156 0.847656 37.429688 C 0.847656 41.96875 6.179688 46.523438 14.28125 49.285156 C 14.9375 49.507812 15.601562 49.714844 16.265625 49.902344 C 16.050781 50.769531 15.859375 51.640625 15.691406 52.519531 C 14.152344 60.589844 15.351562 66.996094 19.171875 69.191406 C 23.117188 71.460938 29.738281 69.128906 36.183594 63.511719 C 36.707031 63.054688 37.214844 62.582031 37.714844 62.101562 C 38.359375 62.722656 39.023438 63.324219 39.703125 63.910156 C 45.945312 69.265625 52.113281 71.429688 55.929688 69.226562 C 59.867188 66.953125 61.148438 60.070312 59.488281 51.695312 C 59.355469 51.039062 59.207031 50.386719 59.046875 49.738281 C 59.511719 49.597656 59.96875 49.457031 60.410156 49.3125 C 68.835938 46.527344 74.3125 42.03125 74.3125 37.429688 C 74.3125 33.019531 69.1875 28.75 61.25 26.027344 Z M 59.425781 46.339844 C 59.023438 46.472656 58.609375 46.601562 58.191406 46.726562 C 57.261719 43.789062 56.007812 40.667969 54.472656 37.445312 C 55.9375 34.296875 57.144531 31.214844 58.046875 28.300781 C 58.796875 28.515625 59.527344 28.746094 60.230469 28.988281 C 67.027344 31.320312 71.175781 34.769531 71.175781 37.429688 C 71.175781 40.261719 66.695312 43.9375 59.425781 46.339844 Z M 56.40625 52.300781 C 57.144531 56.003906 57.246094 59.351562 56.761719 61.96875 C 56.324219 64.324219 55.445312 65.890625 54.355469 66.519531 C 52.039062 67.855469 47.089844 66.117188 41.75 61.535156 C 41.117188 60.992188 40.5 60.433594 39.902344 59.855469 C 41.972656 57.597656 44.039062 54.972656 46.058594 52.058594 C 49.613281 51.746094 52.96875 51.230469 56.011719 50.53125 C 56.15625 51.117188 56.289062 51.707031 56.40625 52.300781 Z M 25.894531 66.289062 C 23.632812 67.085938 21.828125 67.105469 20.742188 66.480469 C 18.421875 65.148438 17.460938 60.003906 18.773438 53.101562 C 18.929688 52.285156 19.109375 51.476562 19.308594 50.671875 C 22.320312 51.335938 25.648438 51.8125 29.210938 52.097656 C 31.242188 54.953125 33.371094 57.574219 35.515625 59.867188 C 35.0625 60.308594 34.59375 60.738281 34.117188 61.152344 C 31.265625 63.636719 28.410156 65.402344 25.894531 66.289062 Z M 15.296875 46.324219 C 11.714844 45.101562 8.753906 43.515625 6.726562 41.785156 C 4.90625 40.226562 3.984375 38.683594 3.984375 37.429688 C 3.984375 34.761719 7.972656 31.359375 14.625 29.046875 C 15.433594 28.765625 16.277344 28.503906 17.152344 28.253906 C 18.074219 31.234375 19.28125 34.351562 20.734375 37.503906 C 19.261719 40.703125 18.039062 43.871094 17.109375 46.890625 C 16.5 46.714844 15.894531 46.527344 15.296875 46.324219 Z M 18.847656 22.210938 C 17.46875 15.175781 18.382812 9.867188 20.691406 8.535156 C 23.148438 7.117188 28.585938 9.140625 34.3125 14.210938 C 34.6875 14.542969 35.054688 14.882812 35.414062 15.226562 C 33.28125 17.511719 31.171875 20.113281 29.15625 22.949219 C 25.703125 23.269531 22.394531 23.78125 19.351562 24.46875 C 19.164062 23.71875 18.996094 22.96875 18.847656 22.210938 Z M 50.539062 30.015625 C 49.820312 28.777344 49.074219 27.554688 48.304688 26.351562 C 50.648438 26.644531 52.894531 27.039062 55.003906 27.519531 C 54.371094 29.542969 53.582031 31.65625 52.652344 33.828125 C 51.972656 32.542969 51.269531 31.269531 50.539062 30.015625 Z M 37.617188 17.464844 C 39.0625 19.027344 40.511719 20.773438 41.9375 22.667969 C 39.046875 22.53125 36.148438 22.53125 33.253906 22.664062 C 34.683594 20.789062 36.144531 19.046875 37.617188 17.464844 Z M 24.609375 30.035156 C 23.886719 31.28125 23.195312 32.546875 22.535156 33.824219 C 21.621094 31.664062 20.839844 29.539062 20.199219 27.484375 C 22.296875 27.015625 24.53125 26.636719 26.863281 26.34375 C 26.082031 27.558594 25.332031 28.789062 24.609375 30.035156 Z M 26.929688 48.738281 C 24.523438 48.46875 22.253906 48.105469 20.15625 47.652344 C 20.804688 45.5625 21.605469 43.390625 22.539062 41.183594 C 23.203125 42.464844 23.898438 43.726562 24.621094 44.976562 C 25.367188 46.257812 26.136719 47.511719 26.929688 48.738281 Z M 37.703125 57.617188 C 36.214844 56.015625 34.730469 54.246094 33.28125 52.339844 C 34.6875 52.394531 36.121094 52.425781 37.582031 52.425781 C 39.078125 52.425781 40.558594 52.390625 42.015625 52.328125 C 40.585938 54.265625 39.140625 56.039062 37.703125 57.617188 Z M 52.683594 41.070312 C 53.664062 43.304688 54.492188 45.460938 55.148438 47.515625 C 53.019531 48 50.71875 48.390625 48.296875 48.679688 C 49.074219 47.453125 49.824219 46.210938 50.550781 44.953125 C 51.289062 43.675781 52 42.382812 52.683594 41.070312 Z M 47.832031 43.390625 C 46.71875 45.316406 45.542969 47.207031 44.308594 49.058594 C 42.070312 49.21875 39.824219 49.296875 37.582031 49.296875 C 35.292969 49.296875 33.070312 49.222656 30.929688 49.085938 C 29.660156 47.238281 28.460938 45.34375 27.335938 43.40625 C 26.21875 41.480469 25.171875 39.511719 24.203125 37.503906 C 25.171875 35.496094 26.210938 33.527344 27.328125 31.597656 C 28.441406 29.667969 29.632812 27.785156 30.890625 25.945312 C 33.074219 25.78125 35.316406 25.695312 37.578125 25.695312 L 37.582031 25.695312 C 39.855469 25.695312 42.097656 25.78125 44.28125 25.945312 C 45.527344 27.78125 46.710938 29.664062 47.824219 31.582031 C 48.941406 33.507812 50 35.46875 50.988281 37.460938 C 50.007812 39.472656 48.957031 41.449219 47.832031 43.390625 Z M 54.308594 8.441406 C 56.765625 9.859375 57.722656 15.5625 56.179688 23.042969 C 56.078125 23.523438 55.96875 24.007812 55.847656 24.5 C 52.800781 23.800781 49.488281 23.277344 46.023438 22.953125 C 44.007812 20.085938 41.914062 17.480469 39.816406 15.226562 C 40.363281 14.695312 40.929688 14.179688 41.503906 13.679688 C 46.929688 8.972656 51.996094 7.113281 54.308594 8.441406 Z M 37.582031 30.886719 C 41.203125 30.886719 44.140625 33.816406 44.140625 37.429688 C 44.140625 41.042969 41.203125 43.972656 37.582031 43.972656 C 33.957031 43.972656 31.019531 41.042969 31.019531 37.429688 C 31.019531 33.816406 33.957031 30.886719 37.582031 30.886719 Z M 37.582031 30.886719 "
            fill-opacity="1" fill-rule="nonzero" />
    </g>
</svg>